# xmcd
#
# Track frame offsets:
#   150
#   4411
#   19882
#   35918
#   52143
#   66786
#   84231
#   105214
#   125468
#   141933
#   155481
#   173969
#   191337
#   203155
#
# Disc length: 2911 seconds
#
# Revision: 0
# Processed by: cddbd v1.5.1PL0 Copyright (c) Steve Scherf et al.
# Submitted via: Media_Universe 3.0
#
DISCID=bf0b5d0e
DTITLE=Martina McBride - Evolution
DYEAR=1900
DGENRE=Country
TTITLE0=I'm Little But I'm Loud
TTITLE1=Happy Girl
TTITLE2=Be That Way
TTITLE3=A Broken Wing
TTITLE4=Wrong Again
TTITLE5=Keeping My Distance
TTITLE6=Still Holding On
TTITLE7=Whatever You Say
TTITLE8=I Wont Close My Eyes
TTITLE9=I Dont Want To See You Again
TTITLE10=Some Say I'm Running
TTITLE11=Here In My Heart
TTITLE12=One Day You Will
TTITLE13=Valentine
EXTD=
EXTT0=
EXTT1=
EXTT2=
EXTT3=
EXTT4=
EXTT5=
EXTT6=
EXTT7=
EXTT8=
EXTT9=
EXTT10=
EXTT11=
EXTT12=
EXTT13=
PLAYORDER=
